<mxfile host="app.diagrams.net" agent="Mozilla/5.0 (Windows NT 10.0; Win64; x64) AppleWebKit/537.36 (KHTML, like Gecko) Chrome/128.0.0.0 Safari/537.36 Edg/128.0.0.0" version="24.7.10">
  <diagram name="第 1 页" id="MpmdEyuBs_y8U7lndru3">
    <mxGraphModel dx="1379" dy="793" grid="1" gridSize="10" guides="1" tooltips="1" connect="1" arrows="1" fold="1" page="1" pageScale="1" pageWidth="827" pageHeight="1169" math="0" shadow="0">
      <root>
        <mxCell id="0" />
        <mxCell id="1" parent="0" />
        <mxCell id="OeRCZkEg32iytggvrvZm-74" value="" style="rounded=0;whiteSpace=wrap;html=1;dashed=1;" vertex="1" parent="1">
          <mxGeometry x="570" y="730" width="446" height="250" as="geometry" />
        </mxCell>
        <mxCell id="OeRCZkEg32iytggvrvZm-30" style="edgeStyle=orthogonalEdgeStyle;rounded=0;orthogonalLoop=1;jettySize=auto;html=1;exitX=1;exitY=0.5;exitDx=0;exitDy=0;entryX=0;entryY=0.5;entryDx=0;entryDy=0;" edge="1" parent="1" source="OeRCZkEg32iytggvrvZm-1" target="OeRCZkEg32iytggvrvZm-29">
          <mxGeometry relative="1" as="geometry" />
        </mxCell>
        <mxCell id="OeRCZkEg32iytggvrvZm-1" value="参数变更" style="rounded=0;whiteSpace=wrap;html=1;" vertex="1" parent="1">
          <mxGeometry x="250" y="480" width="120" height="60" as="geometry" />
        </mxCell>
        <mxCell id="OeRCZkEg32iytggvrvZm-14" value="&lt;font color=&quot;#ff0000&quot;&gt;30分钟计算完成&lt;/font&gt;" style="text;html=1;align=center;verticalAlign=middle;whiteSpace=wrap;rounded=0;" vertex="1" parent="1">
          <mxGeometry x="1010" y="540" width="100" height="30" as="geometry" />
        </mxCell>
        <mxCell id="OeRCZkEg32iytggvrvZm-32" style="edgeStyle=orthogonalEdgeStyle;rounded=0;orthogonalLoop=1;jettySize=auto;html=1;exitX=1;exitY=0.5;exitDx=0;exitDy=0;entryX=0;entryY=0.5;entryDx=0;entryDy=0;" edge="1" parent="1" source="OeRCZkEg32iytggvrvZm-29" target="OeRCZkEg32iytggvrvZm-31">
          <mxGeometry relative="1" as="geometry" />
        </mxCell>
        <mxCell id="OeRCZkEg32iytggvrvZm-29" value="触发渠道健康重算" style="rounded=0;whiteSpace=wrap;html=1;" vertex="1" parent="1">
          <mxGeometry x="430" y="480" width="120" height="60" as="geometry" />
        </mxCell>
        <mxCell id="OeRCZkEg32iytggvrvZm-34" value="" style="edgeStyle=orthogonalEdgeStyle;rounded=0;orthogonalLoop=1;jettySize=auto;html=1;" edge="1" parent="1" source="OeRCZkEg32iytggvrvZm-31" target="OeRCZkEg32iytggvrvZm-33">
          <mxGeometry relative="1" as="geometry" />
        </mxCell>
        <mxCell id="OeRCZkEg32iytggvrvZm-31" value="渠道健康&lt;br&gt;状态标记" style="rounded=0;whiteSpace=wrap;html=1;fillColor=#fff2cc;strokeColor=#d6b656;dashed=1;" vertex="1" parent="1">
          <mxGeometry x="630" y="480" width="120" height="60" as="geometry" />
        </mxCell>
        <mxCell id="OeRCZkEg32iytggvrvZm-36" value="" style="edgeStyle=orthogonalEdgeStyle;rounded=0;orthogonalLoop=1;jettySize=auto;html=1;" edge="1" parent="1" source="OeRCZkEg32iytggvrvZm-33" target="OeRCZkEg32iytggvrvZm-35">
          <mxGeometry relative="1" as="geometry" />
        </mxCell>
        <mxCell id="OeRCZkEg32iytggvrvZm-33" value="进行重算" style="rounded=0;whiteSpace=wrap;html=1;" vertex="1" parent="1">
          <mxGeometry x="827" y="480" width="120" height="60" as="geometry" />
        </mxCell>
        <mxCell id="OeRCZkEg32iytggvrvZm-38" value="" style="edgeStyle=orthogonalEdgeStyle;rounded=0;orthogonalLoop=1;jettySize=auto;html=1;" edge="1" parent="1" source="OeRCZkEg32iytggvrvZm-35" target="OeRCZkEg32iytggvrvZm-37">
          <mxGeometry relative="1" as="geometry" />
        </mxCell>
        <mxCell id="OeRCZkEg32iytggvrvZm-35" value="重算完成" style="rounded=0;whiteSpace=wrap;html=1;" vertex="1" parent="1">
          <mxGeometry x="1010" y="480" width="120" height="60" as="geometry" />
        </mxCell>
        <mxCell id="OeRCZkEg32iytggvrvZm-37" value="渠道健康&lt;br&gt;状态标记删除" style="rounded=0;whiteSpace=wrap;html=1;fillColor=#fff2cc;strokeColor=#d6b656;dashed=1;" vertex="1" parent="1">
          <mxGeometry x="1210" y="480" width="120" height="60" as="geometry" />
        </mxCell>
        <mxCell id="OeRCZkEg32iytggvrvZm-41" value="" style="edgeStyle=orthogonalEdgeStyle;rounded=0;orthogonalLoop=1;jettySize=auto;html=1;" edge="1" parent="1" source="OeRCZkEg32iytggvrvZm-39" target="OeRCZkEg32iytggvrvZm-40">
          <mxGeometry relative="1" as="geometry" />
        </mxCell>
        <mxCell id="OeRCZkEg32iytggvrvZm-39" value="下单" style="rounded=0;whiteSpace=wrap;html=1;" vertex="1" parent="1">
          <mxGeometry x="250" y="620" width="120" height="60" as="geometry" />
        </mxCell>
        <mxCell id="OeRCZkEg32iytggvrvZm-43" value="" style="edgeStyle=orthogonalEdgeStyle;rounded=0;orthogonalLoop=1;jettySize=auto;html=1;" edge="1" parent="1" source="OeRCZkEg32iytggvrvZm-40" target="OeRCZkEg32iytggvrvZm-42">
          <mxGeometry relative="1" as="geometry" />
        </mxCell>
        <mxCell id="OeRCZkEg32iytggvrvZm-40" value="其他逻辑校验&lt;br&gt;（先行忽略）" style="rounded=0;whiteSpace=wrap;html=1;" vertex="1" parent="1">
          <mxGeometry x="430" y="620" width="120" height="60" as="geometry" />
        </mxCell>
        <mxCell id="OeRCZkEg32iytggvrvZm-45" value="" style="edgeStyle=orthogonalEdgeStyle;rounded=0;orthogonalLoop=1;jettySize=auto;html=1;" edge="1" parent="1" source="OeRCZkEg32iytggvrvZm-42">
          <mxGeometry relative="1" as="geometry">
            <mxPoint x="850" y="650" as="targetPoint" />
          </mxGeometry>
        </mxCell>
        <mxCell id="OeRCZkEg32iytggvrvZm-57" style="edgeStyle=orthogonalEdgeStyle;rounded=0;orthogonalLoop=1;jettySize=auto;html=1;exitX=0.5;exitY=1;exitDx=0;exitDy=0;entryX=0.5;entryY=0;entryDx=0;entryDy=0;dashed=1;" edge="1" parent="1" source="OeRCZkEg32iytggvrvZm-42" target="OeRCZkEg32iytggvrvZm-54">
          <mxGeometry relative="1" as="geometry" />
        </mxCell>
        <mxCell id="OeRCZkEg32iytggvrvZm-42" value="渠道健康校验" style="rounded=0;whiteSpace=wrap;html=1;" vertex="1" parent="1">
          <mxGeometry x="630" y="620" width="120" height="60" as="geometry" />
        </mxCell>
        <mxCell id="OeRCZkEg32iytggvrvZm-51" value="" style="edgeStyle=orthogonalEdgeStyle;rounded=0;orthogonalLoop=1;jettySize=auto;html=1;" edge="1" parent="1" source="OeRCZkEg32iytggvrvZm-54" target="OeRCZkEg32iytggvrvZm-55">
          <mxGeometry relative="1" as="geometry" />
        </mxCell>
        <mxCell id="OeRCZkEg32iytggvrvZm-52" value="存在" style="edgeLabel;html=1;align=center;verticalAlign=middle;resizable=0;points=[];" vertex="1" connectable="0" parent="OeRCZkEg32iytggvrvZm-51">
          <mxGeometry x="-0.3333" y="2" relative="1" as="geometry">
            <mxPoint as="offset" />
          </mxGeometry>
        </mxCell>
        <mxCell id="OeRCZkEg32iytggvrvZm-53" value="" style="edgeStyle=orthogonalEdgeStyle;rounded=0;orthogonalLoop=1;jettySize=auto;html=1;" edge="1" parent="1" source="OeRCZkEg32iytggvrvZm-54" target="OeRCZkEg32iytggvrvZm-56">
          <mxGeometry relative="1" as="geometry" />
        </mxCell>
        <mxCell id="OeRCZkEg32iytggvrvZm-66" value="不存在" style="edgeLabel;html=1;align=center;verticalAlign=middle;resizable=0;points=[];" vertex="1" connectable="0" parent="OeRCZkEg32iytggvrvZm-53">
          <mxGeometry x="-0.0667" y="3" relative="1" as="geometry">
            <mxPoint as="offset" />
          </mxGeometry>
        </mxCell>
        <mxCell id="OeRCZkEg32iytggvrvZm-54" value="渠道健康&lt;br&gt;状态标记&lt;br&gt;是否存在？" style="rhombus;whiteSpace=wrap;html=1;rounded=0;fillColor=#fff2cc;strokeColor=#d6b656;" vertex="1" parent="1">
          <mxGeometry x="650" y="750" width="80" height="80" as="geometry" />
        </mxCell>
        <mxCell id="OeRCZkEg32iytggvrvZm-68" value="" style="edgeStyle=orthogonalEdgeStyle;rounded=0;orthogonalLoop=1;jettySize=auto;html=1;" edge="1" parent="1" source="OeRCZkEg32iytggvrvZm-55" target="OeRCZkEg32iytggvrvZm-67">
          <mxGeometry relative="1" as="geometry" />
        </mxCell>
        <mxCell id="OeRCZkEg32iytggvrvZm-55" value="实时计算" style="whiteSpace=wrap;html=1;rounded=0;" vertex="1" parent="1">
          <mxGeometry x="810" y="760" width="120" height="60" as="geometry" />
        </mxCell>
        <mxCell id="OeRCZkEg32iytggvrvZm-69" style="edgeStyle=orthogonalEdgeStyle;rounded=0;orthogonalLoop=1;jettySize=auto;html=1;exitX=1;exitY=0.5;exitDx=0;exitDy=0;entryX=0;entryY=0.5;entryDx=0;entryDy=0;" edge="1" parent="1" source="OeRCZkEg32iytggvrvZm-56" target="OeRCZkEg32iytggvrvZm-67">
          <mxGeometry relative="1" as="geometry" />
        </mxCell>
        <mxCell id="OeRCZkEg32iytggvrvZm-56" value="已计算完成的&lt;br&gt;DB库校验" style="whiteSpace=wrap;html=1;rounded=0;" vertex="1" parent="1">
          <mxGeometry x="630" y="900" width="120" height="60" as="geometry" />
        </mxCell>
        <mxCell id="OeRCZkEg32iytggvrvZm-60" value="" style="edgeStyle=orthogonalEdgeStyle;rounded=0;orthogonalLoop=1;jettySize=auto;html=1;" edge="1" parent="1" source="OeRCZkEg32iytggvrvZm-58" target="OeRCZkEg32iytggvrvZm-59">
          <mxGeometry relative="1" as="geometry" />
        </mxCell>
        <mxCell id="OeRCZkEg32iytggvrvZm-58" value="库存与扣减" style="rounded=0;whiteSpace=wrap;html=1;" vertex="1" parent="1">
          <mxGeometry x="850" y="620" width="120" height="60" as="geometry" />
        </mxCell>
        <mxCell id="OeRCZkEg32iytggvrvZm-62" value="" style="edgeStyle=orthogonalEdgeStyle;rounded=0;orthogonalLoop=1;jettySize=auto;html=1;" edge="1" parent="1" source="OeRCZkEg32iytggvrvZm-59" target="OeRCZkEg32iytggvrvZm-61">
          <mxGeometry relative="1" as="geometry" />
        </mxCell>
        <mxCell id="OeRCZkEg32iytggvrvZm-59" value="创建订单" style="rounded=0;whiteSpace=wrap;html=1;" vertex="1" parent="1">
          <mxGeometry x="1050" y="620" width="120" height="60" as="geometry" />
        </mxCell>
        <mxCell id="OeRCZkEg32iytggvrvZm-61" value="... ..." style="rounded=0;whiteSpace=wrap;html=1;" vertex="1" parent="1">
          <mxGeometry x="1250" y="620" width="120" height="60" as="geometry" />
        </mxCell>
        <mxCell id="OeRCZkEg32iytggvrvZm-67" value="获取渠道健康&lt;br&gt;数据进行校验" style="whiteSpace=wrap;html=1;rounded=0;" vertex="1" parent="1">
          <mxGeometry x="810" y="900" width="120" height="60" as="geometry" />
        </mxCell>
      </root>
    </mxGraphModel>
  </diagram>
</mxfile>
